<svg width="18" height="19" viewBox="0 0 18 19" fill="none" xmlns="http://www.w3.org/2000/svg">
<path fill-rule="evenodd" clip-rule="evenodd" d="M9.02283 11.3898L2.78113 17.6315C2.47195 17.9406 2.02731 17.9972 1.78795 17.7579L0.704475 16.6744C0.465109 16.435 0.521699 15.9904 0.83088 15.6812L7.07258 9.43951L9.02283 11.3898ZM10.9731 9.43951L17.3357 15.8022C17.6449 16.1114 17.7015 16.556 17.4621 16.7954L16.3787 17.8788C16.1393 18.1182 15.6947 18.0616 15.3855 17.7524L9.02283 11.3898L10.9731 9.43951ZM9.02283 7.48926L7.07258 9.43951L0.83088 3.19781C0.521699 2.88863 0.465109 2.44399 0.704475 2.20463L1.78795 1.12116C2.02731 0.881792 2.47195 0.938382 2.78113 1.24756L9.02283 7.48926ZM9.02283 7.48926L15.3855 1.12659C15.6947 0.817414 16.1393 0.760825 16.3787 1.00019L17.4621 2.08366C17.7015 2.32303 17.6449 2.76766 17.3357 3.07684L10.9731 9.43951L9.02283 7.48926Z" fill="#112B36"/>
</svg>
